<svg width="185" height="185" fill="none" xmlns="http://www.w3.org/2000/svg"><circle cx="92.792" cy="92.208" r="25.18" stroke="#F26739" stroke-width="8"/><circle cx="92.5" cy="92.5" r="6" stroke="#F26739" stroke-width="8.426"/><path d="M94.792 58.517l9.547-20H81.245l9.547 20h4zm0 25.52v-27.52h-4v27.52h4zM126.483 94.792l20 9.547V81.245l-20 9.547v4zm-25.521 0h27.521v-4h-27.521v4zM90.208 126.483l-9.547 20h23.094l-9.547-20h-4zm0-25.521v27.521h4v-27.521h-4zM58.517 90.208l-20-9.547v23.094l20-9.547v-4zm25.52 0h-27.52v4h27.52v-4z" fill="#F26739"/><ellipse cx="92.208" cy="34.432" rx="8.754" ry="21.009" fill="#F26739" filter="url(#a)"/><ellipse cx="150.568" cy="92.208" rx="8.754" ry="21.009" transform="rotate(90 150.568 92.208)" fill="#F26739" filter="url(#b)"/><ellipse cx="92.792" cy="150.568" rx="8.754" ry="21.009" transform="rotate(-180 92.792 150.568)" fill="#F26739" filter="url(#c)"/><ellipse cx="34.432" cy="92.792" rx="8.754" ry="21.009" transform="rotate(-90 34.432 92.792)" fill="#F26739" filter="url(#d)"/><path d="M92.208 24.511L81.595 6.128h21.227L92.208 24.51z" fill="#F26739" filter="url(#e)"/><path d="M160.489 92.208l18.383-10.613v21.227l-18.383-10.614z" fill="#F26739" filter="url(#f)"/><path d="M92.792 160.489l10.613 18.383H82.178l10.614-18.383z" fill="#F26739" filter="url(#g)"/><path d="M24.511 92.792L6.128 103.405V82.178L24.51 92.792z" fill="#F26739" filter="url(#h)"/><circle cx="93" cy="93" r="68" stroke="#F26739" stroke-width="12"/><circle cx="46.5" cy="137.5" r="7.5" fill="#F26739"/><circle cx="138.5" cy="138.5" r="7.5" fill="#F26739"/><circle cx="137.5" cy="47.5" r="7.5" fill="#F26739"/><circle cx="46.5" cy="48.5" r="7.5" fill="#F26739"/><path stroke="#F26739" stroke-width="5" d="M48.701 51.168l28 26M108.701 110.168l28 26M135.584 49.62l-24.68 28.992M71.584 109.621l-24.68 28.991"/><defs><filter id="a" x="79.454" y="9.423" width="25.508" height="50.019" filterUnits="userSpaceOnUse" color-interpolation-filters="sRGB"><feFlood flood-opacity="0" result="BackgroundImageFix"/><feGaussianBlur in="BackgroundImage" stdDeviation="2"/><feComposite in2="SourceAlpha" operator="in" result="effect1_backgroundBlur"/><feBlend in="SourceGraphic" in2="effect1_backgroundBlur" result="shape"/></filter><filter id="b" x="125.558" y="79.454" width="50.019" height="25.508" filterUnits="userSpaceOnUse" color-interpolation-filters="sRGB"><feFlood flood-opacity="0" result="BackgroundImageFix"/><feGaussianBlur in="BackgroundImage" stdDeviation="2"/><feComposite in2="SourceAlpha" operator="in" result="effect1_backgroundBlur"/><feBlend in="SourceGraphic" in2="effect1_backgroundBlur" result="shape"/></filter><filter id="c" x="80.038" y="125.558" width="25.508" height="50.019" filterUnits="userSpaceOnUse" color-interpolation-filters="sRGB"><feFlood flood-opacity="0" result="BackgroundImageFix"/><feGaussianBlur in="BackgroundImage" stdDeviation="2"/><feComposite in2="SourceAlpha" operator="in" result="effect1_backgroundBlur"/><feBlend in="SourceGraphic" in2="effect1_backgroundBlur" result="shape"/></filter><filter id="d" x="9.423" y="80.038" width="50.019" height="25.508" filterUnits="userSpaceOnUse" color-interpolation-filters="sRGB"><feFlood flood-opacity="0" result="BackgroundImageFix"/><feGaussianBlur in="BackgroundImage" stdDeviation="2"/><feComposite in2="SourceAlpha" operator="in" result="effect1_backgroundBlur"/><feBlend in="SourceGraphic" in2="effect1_backgroundBlur" result="shape"/></filter><filter id="e" x="77.595" y="2.128" width="29.227" height="26.383" filterUnits="userSpaceOnUse" color-interpolation-filters="sRGB"><feFlood flood-opacity="0" result="BackgroundImageFix"/><feGaussianBlur in="BackgroundImage" stdDeviation="2"/><feComposite in2="SourceAlpha" operator="in" result="effect1_backgroundBlur"/><feBlend in="SourceGraphic" in2="effect1_backgroundBlur" result="shape"/></filter><filter id="f" x="156.489" y="77.595" width="26.383" height="29.227" filterUnits="userSpaceOnUse" color-interpolation-filters="sRGB"><feFlood flood-opacity="0" result="BackgroundImageFix"/><feGaussianBlur in="BackgroundImage" stdDeviation="2"/><feComposite in2="SourceAlpha" operator="in" result="effect1_backgroundBlur"/><feBlend in="SourceGraphic" in2="effect1_backgroundBlur" result="shape"/></filter><filter id="g" x="78.178" y="156.489" width="29.227" height="26.383" filterUnits="userSpaceOnUse" color-interpolation-filters="sRGB"><feFlood flood-opacity="0" result="BackgroundImageFix"/><feGaussianBlur in="BackgroundImage" stdDeviation="2"/><feComposite in2="SourceAlpha" operator="in" result="effect1_backgroundBlur"/><feBlend in="SourceGraphic" in2="effect1_backgroundBlur" result="shape"/></filter><filter id="h" x="2.128" y="78.178" width="26.383" height="29.227" filterUnits="userSpaceOnUse" color-interpolation-filters="sRGB"><feFlood flood-opacity="0" result="BackgroundImageFix"/><feGaussianBlur in="BackgroundImage" stdDeviation="2"/><feComposite in2="SourceAlpha" operator="in" result="effect1_backgroundBlur"/><feBlend in="SourceGraphic" in2="effect1_backgroundBlur" result="shape"/></filter></defs></svg>